<svg xmlns="http://www.w3.org/2000/svg" xmlns:xlink="http://www.w3.org/1999/xlink" version="1.1" width="256" height="256" viewBox="0 0 256 256" xml:space="preserve">

<defs>
</defs>
<g style="stroke: none; stroke-width: 0; stroke-dasharray: none; stroke-linecap: butt; stroke-linejoin: miter; stroke-miterlimit: 10; fill: none; fill-rule: nonzero; opacity: 1;" transform="translate(1.4065934065934016 1.4065934065934016) scale(2.81 2.81)" >
	<path d="M 81.755 56.529 h -6.432 V 36.926 h 6.432 c 2.019 0 3.656 1.637 3.656 3.656 v 12.291 C 85.411 54.892 83.774 56.529 81.755 56.529 z" style="stroke: none; stroke-width: 1; stroke-dasharray: none; stroke-linecap: butt; stroke-linejoin: miter; stroke-miterlimit: 10; fill: rgb(247,191,80); fill-rule: nonzero; opacity: 1;" transform=" matrix(1 0 0 1 0 0) " stroke-linecap="round" />
	<path d="M 14.678 56.529 H 8.245 c -2.019 0 -3.656 -1.637 -3.656 -3.656 V 40.582 c 0 -2.019 1.637 -3.656 3.656 -3.656 h 6.432 V 56.529 z" style="stroke: none; stroke-width: 1; stroke-dasharray: none; stroke-linecap: butt; stroke-linejoin: miter; stroke-miterlimit: 10; fill: rgb(247,191,80); fill-rule: nonzero; opacity: 1;" transform=" matrix(1 0 0 1 0 0) " stroke-linecap="round" />
	<path d="M 68.13 21.413 H 21.87 c -3.972 0 -7.192 3.22 -7.192 7.192 V 64.85 c 0 3.972 3.22 7.192 7.192 7.192 h 4.361 V 89 l 22.793 -16.958 H 68.13 c 3.972 0 7.192 -3.22 7.192 -7.192 V 28.605 C 75.322 24.633 72.102 21.413 68.13 21.413 z" style="stroke: none; stroke-width: 1; stroke-dasharray: none; stroke-linecap: butt; stroke-linejoin: miter; stroke-miterlimit: 10; fill: rgb(176,182,188); fill-rule: nonzero; opacity: 1;" transform=" matrix(1 0 0 1 0 0) " stroke-linecap="round" />
	<path d="M 63.177 59.748 H 26.823 c -1.48 0 -2.68 -1.2 -2.68 -2.68 V 36.386 c 0 -1.48 1.2 -2.68 2.68 -2.68 h 36.353 c 1.48 0 2.68 1.2 2.68 2.68 v 20.683 C 65.856 58.549 64.657 59.748 63.177 59.748 z" style="stroke: none; stroke-width: 1; stroke-dasharray: none; stroke-linecap: butt; stroke-linejoin: miter; stroke-miterlimit: 10; fill: rgb(126,198,197); fill-rule: nonzero; opacity: 1;" transform=" matrix(1 0 0 1 0 0) " stroke-linecap="round" />
	<circle cx="45.003" cy="7.233" r="6.233" style="stroke: none; stroke-width: 1; stroke-dasharray: none; stroke-linecap: butt; stroke-linejoin: miter; stroke-miterlimit: 10; fill: rgb(247,191,80); fill-rule: nonzero; opacity: 1;" transform="  matrix(1 0 0 1 0 0) "/>
	<path d="M 81.755 57.529 h -6.433 c -0.553 0 -1 -0.447 -1 -1 V 36.926 c 0 -0.552 0.447 -1 1 -1 h 6.433 c 2.567 0 4.656 2.089 4.656 4.656 v 12.291 C 86.411 55.44 84.322 57.529 81.755 57.529 z M 76.322 55.529 h 5.433 c 1.465 0 2.656 -1.191 2.656 -2.656 V 40.582 c 0 -1.465 -1.191 -2.656 -2.656 -2.656 h -5.433 V 55.529 z" style="stroke: none; stroke-width: 1; stroke-dasharray: none; stroke-linecap: butt; stroke-linejoin: miter; stroke-miterlimit: 10; fill: rgb(0,0,0); fill-rule: nonzero; opacity: 1;" transform=" matrix(1 0 0 1 0 0) " stroke-linecap="round" />
	<path d="M 14.678 57.529 H 8.245 c -2.567 0 -4.656 -2.089 -4.656 -4.656 V 40.582 c 0 -2.567 2.089 -4.656 4.656 -4.656 h 6.433 c 0.552 0 1 0.448 1 1 v 19.604 C 15.678 57.082 15.23 57.529 14.678 57.529 z M 8.245 37.926 c -1.465 0 -2.656 1.191 -2.656 2.656 v 12.291 c 0 1.465 1.191 2.656 2.656 2.656 h 5.433 V 37.926 H 8.245 z" style="stroke: none; stroke-width: 1; stroke-dasharray: none; stroke-linecap: butt; stroke-linejoin: miter; stroke-miterlimit: 10; fill: rgb(0,0,0); fill-rule: nonzero; opacity: 1;" transform=" matrix(1 0 0 1 0 0) " stroke-linecap="round" />
	<path d="M 26.23 90 c -0.153 0 -0.307 -0.035 -0.449 -0.106 c -0.338 -0.17 -0.551 -0.516 -0.551 -0.894 V 73.042 H 21.87 c -4.517 0 -8.192 -3.675 -8.192 -8.192 V 28.605 c 0 -4.517 3.675 -8.192 8.192 -8.192 h 46.261 c 4.517 0 8.191 3.675 8.191 8.192 V 64.85 c 0 4.518 -3.675 8.192 -8.191 8.192 H 49.354 L 26.827 89.803 C 26.651 89.934 26.441 90 26.23 90 z M 21.87 22.413 c -3.414 0 -6.192 2.778 -6.192 6.192 V 64.85 c 0 3.414 2.778 6.192 6.192 6.192 h 4.361 c 0.552 0 1 0.447 1 1 V 87.01 l 21.196 -15.771 c 0.172 -0.128 0.382 -0.197 0.597 -0.197 h 19.107 c 3.414 0 6.191 -2.778 6.191 -6.192 V 28.605 c 0 -3.415 -2.777 -6.192 -6.191 -6.192 H 21.87 z" style="stroke: none; stroke-width: 1; stroke-dasharray: none; stroke-linecap: butt; stroke-linejoin: miter; stroke-miterlimit: 10; fill: rgb(0,0,0); fill-rule: nonzero; opacity: 1;" transform=" matrix(1 0 0 1 0 0) " stroke-linecap="round" />
	<path d="M 63.177 60.748 H 26.823 c -2.029 0 -3.679 -1.65 -3.679 -3.679 V 36.386 c 0 -2.029 1.65 -3.679 3.679 -3.679 h 36.354 c 2.029 0 3.68 1.65 3.68 3.679 v 20.684 C 66.856 59.098 65.206 60.748 63.177 60.748 z M 26.823 34.707 c -0.926 0 -1.679 0.753 -1.679 1.679 v 20.684 c 0 0.926 0.753 1.679 1.679 1.679 h 36.354 c 0.926 0 1.68 -0.753 1.68 -1.679 V 36.386 c 0 -0.926 -0.754 -1.679 -1.68 -1.679 H 26.823 z" style="stroke: none; stroke-width: 1; stroke-dasharray: none; stroke-linecap: butt; stroke-linejoin: miter; stroke-miterlimit: 10; fill: rgb(0,0,0); fill-rule: nonzero; opacity: 1;" transform=" matrix(1 0 0 1 0 0) " stroke-linecap="round" />
	<path d="M 42.929 54.434 c -0.552 0 -1 -0.447 -1 -1 V 42.913 c 0 -1.043 -0.849 -1.892 -1.892 -1.892 h -2.541 c -1.043 0 -1.892 0.849 -1.892 1.892 v 10.521 c 0 0.553 -0.448 1 -1 1 s -1 -0.447 -1 -1 V 42.913 c 0 -2.146 1.746 -3.892 3.892 -3.892 h 2.541 c 2.146 0 3.892 1.746 3.892 3.892 v 10.521 C 43.929 53.986 43.481 54.434 42.929 54.434 z" style="stroke: none; stroke-width: 1; stroke-dasharray: none; stroke-linecap: butt; stroke-linejoin: miter; stroke-miterlimit: 10; fill: rgb(0,0,0); fill-rule: nonzero; opacity: 1;" transform=" matrix(1 0 0 1 0 0) " stroke-linecap="round" />
	<path d="M 42.929 47.728 h -8.324 c -0.552 0 -1 -0.447 -1 -1 s 0.448 -1 1 -1 h 8.324 c 0.552 0 1 0.447 1 1 S 43.481 47.728 42.929 47.728 z" style="stroke: none; stroke-width: 1; stroke-dasharray: none; stroke-linecap: butt; stroke-linejoin: miter; stroke-miterlimit: 10; fill: rgb(0,0,0); fill-rule: nonzero; opacity: 1;" transform=" matrix(1 0 0 1 0 0) " stroke-linecap="round" />
	<path d="M 52.646 54.434 c -0.553 0 -1 -0.447 -1 -1 V 40.021 c 0 -0.552 0.447 -1 1 -1 s 1 0.448 1 1 v 13.412 C 53.646 53.986 53.199 54.434 52.646 54.434 z" style="stroke: none; stroke-width: 1; stroke-dasharray: none; stroke-linecap: butt; stroke-linejoin: miter; stroke-miterlimit: 10; fill: rgb(0,0,0); fill-rule: nonzero; opacity: 1;" transform=" matrix(1 0 0 1 0 0) " stroke-linecap="round" />
	<path d="M 55.396 41.021 h -5.499 c -0.553 0 -1 -0.448 -1 -1 s 0.447 -1 1 -1 h 5.499 c 0.553 0 1 0.448 1 1 S 55.948 41.021 55.396 41.021 z" style="stroke: none; stroke-width: 1; stroke-dasharray: none; stroke-linecap: butt; stroke-linejoin: miter; stroke-miterlimit: 10; fill: rgb(0,0,0); fill-rule: nonzero; opacity: 1;" transform=" matrix(1 0 0 1 0 0) " stroke-linecap="round" />
	<path d="M 55.396 54.434 h -5.499 c -0.553 0 -1 -0.447 -1 -1 s 0.447 -1 1 -1 h 5.499 c 0.553 0 1 0.447 1 1 S 55.948 54.434 55.396 54.434 z" style="stroke: none; stroke-width: 1; stroke-dasharray: none; stroke-linecap: butt; stroke-linejoin: miter; stroke-miterlimit: 10; fill: rgb(0,0,0); fill-rule: nonzero; opacity: 1;" transform=" matrix(1 0 0 1 0 0) " stroke-linecap="round" />
	<path d="M 45 14.467 c -3.988 0 -7.233 -3.245 -7.233 -7.233 S 41.012 0 45 0 s 7.233 3.245 7.233 7.233 S 48.988 14.467 45 14.467 z M 45 2 c -2.886 0 -5.233 2.348 -5.233 5.233 s 2.348 5.233 5.233 5.233 s 5.233 -2.348 5.233 -5.233 S 47.886 2 45 2 z" style="stroke: none; stroke-width: 1; stroke-dasharray: none; stroke-linecap: butt; stroke-linejoin: miter; stroke-miterlimit: 10; fill: rgb(0,0,0); fill-rule: nonzero; opacity: 1;" transform=" matrix(1 0 0 1 0 0) " stroke-linecap="round" />
	<path d="M 45 22.413 c -0.552 0 -1 -0.448 -1 -1 v -7.946 c 0 -0.552 0.448 -1 1 -1 s 1 0.448 1 1 v 7.946 C 46 21.965 45.552 22.413 45 22.413 z" style="stroke: none; stroke-width: 1; stroke-dasharray: none; stroke-linecap: butt; stroke-linejoin: miter; stroke-miterlimit: 10; fill: rgb(0,0,0); fill-rule: nonzero; opacity: 1;" transform=" matrix(1 0 0 1 0 0) " stroke-linecap="round" />
</g>
</svg>