<svg width="65" height="66" viewBox="0 0 65 66" fill="none" xmlns="http://www.w3.org/2000/svg">
<g id="logo-v3">
<path id="path452" d="M65 33.3597C65 51.3075 50.4494 65.8579 32.5 65.8579C14.5506 65.8579 0 51.3075 0 33.3597C0 15.4096 14.5506 0.859215 32.5 0.859215C50.4494 0.859215 65 15.4096 65 33.3597Z" fill="#0E2F63"/>
<path id="path454" d="M62.4027 33.3587C62.4027 49.8732 49.0149 63.2612 32.5 63.2612C15.985 63.2612 2.59717 49.8732 2.59717 33.3587C2.59717 16.8419 15.985 3.45387 32.5 3.45387C49.0149 3.45387 62.4027 16.8419 62.4027 33.3587Z" fill="#034DA1"/>
<path id="path456" d="M46.9908 57.9422C46.9908 57.566 46.9975 57.3331 46.9897 57.0979C46.9467 55.7923 47.0327 54.4642 46.8284 53.1832C46.3539 50.2068 43.8736 48.0635 40.8596 47.9C39.8957 47.8485 38.9266 47.8911 37.8738 47.8911V43.5239C38.9613 43.4747 40.0251 43.3314 41.0766 43.3918C45.6795 43.665 49.0523 41.7569 51.2986 37.7728C51.3107 37.7504 51.3367 37.7369 51.3561 37.719C53.5677 42.5901 53.0179 51.7946 46.9908 57.9422ZM45.3219 58.9433C45.31 59.277 45.117 59.7115 44.8603 59.9153C37.6794 65.615 27.2357 65.6105 20.1213 59.9153C19.9168 59.7518 19.6707 59.4763 19.6678 59.2501C19.6449 57.4697 19.5415 55.6736 19.7224 53.9088C20.0019 51.1832 21.9893 49.5461 24.7578 49.5349C27.3264 49.526 29.8952 49.5327 32.4637 49.5327C35.0322 49.5327 37.601 49.526 40.1696 49.5327C43.2949 49.5417 45.3268 51.5729 45.3405 54.6971C45.3465 56.1125 45.3718 57.5301 45.3219 58.9433ZM18.0235 54.4575C18.0219 55.5705 18.0233 56.6836 18.0233 57.8616C13.3509 54.4239 10.8406 42.8252 13.4954 37.9004C14.5235 39.0112 15.4973 40.2766 16.6851 41.2933C18.451 42.805 20.6169 43.4187 22.934 43.4545C24.2945 43.4747 25.6557 43.459 27.1118 43.459V47.8754C26.3638 47.8754 25.6631 47.9023 24.9655 47.8687C21.093 47.6895 18.0291 50.5898 18.0235 54.4575ZM14.449 25.8896C14.8528 22.0488 18.4121 18.9 22.2885 18.797C25.694 18.7052 29.1042 18.7768 32.5121 18.7768C35.9202 18.779 39.33 18.7096 42.7359 18.797C46.5823 18.8955 50.2055 22.0891 50.5457 25.921C50.8036 28.8257 50.857 31.8021 50.5226 34.6934C50.0554 38.7313 46.2988 41.6786 42.6241 41.7054C37.2255 41.7413 31.8261 41.7301 26.4272 41.7189C24.7301 41.7166 23.0058 41.8264 21.3416 41.5733C17.4605 40.9843 14.4935 37.6921 14.3056 33.7371C14.1815 31.128 14.1764 28.4831 14.449 25.8896ZM52.2052 34.8882C52.198 34.8725 52.1926 34.8546 52.1897 34.8344C52.0291 33.7886 52.3171 32.7427 52.3984 31.7013C52.5097 30.2814 52.4293 28.8683 52.3733 27.4484C52.3196 26.08 52.2211 24.6803 51.7917 23.3724C51.372 22.0914 50.2982 21.0388 49.3735 20.1027C47.3538 18.0579 44.867 17.0792 42.0275 17.0635C35.6824 17.0322 29.3371 17.0412 22.9917 17.0613C20.6498 17.0703 18.5576 17.8228 16.6341 19.1956C15.2447 20.1878 14.3056 21.7398 13.5941 23.2604C13.3213 23.8427 13.0889 24.4407 12.8674 25.0453C12.3998 26.3197 12.4681 27.6567 12.5046 28.9892C12.5545 30.7965 12.3435 32.6889 12.658 34.4761C12.7308 34.8882 12.8027 34.9106 12.6242 35.354C12.4528 35.7795 12.2862 36.2073 12.133 36.6395C11.8459 37.4503 11.5969 38.2744 11.3937 39.112C10.5956 42.3974 10.5604 45.8217 11.3575 49.1116C11.3821 49.2124 11.4076 49.3155 11.4336 49.4162C12.7129 54.3858 15.3788 58.4573 19.4922 61.5367C26.7945 67.0057 36.8042 67.3058 44.3972 62.3094C48.2067 59.8033 50.9846 56.4305 52.6566 52.1888C54.9383 46.3973 54.6839 40.6416 52.1756 34.8882H52.2052Z" fill="white"/>
<path id="path458" d="M32.512 18.7791C35.9202 18.7791 39.3299 18.7097 42.7358 18.7971C46.5823 18.8956 50.2057 22.0892 50.5456 25.9211C50.8036 28.8258 50.8569 31.8022 50.5226 34.6934C50.0554 38.7314 46.2988 41.6786 42.6241 41.7055C37.2254 41.7413 31.8261 41.7301 26.4272 41.7189C24.73 41.7167 23.0058 41.8264 21.3416 41.5734C17.4604 40.9844 14.4935 37.6922 14.3056 33.7372C14.1815 31.1281 14.1764 28.4831 14.4489 25.8897C14.8527 22.0489 18.412 18.9001 22.2885 18.7971C25.6939 18.7053 29.1039 18.7769 32.512 18.7791Z" fill="#034DA1"/>
<path id="path460" d="M32.4942 58.4575C34.4059 58.4575 36.3173 58.4597 38.2288 58.4552C40.0276 58.4507 41.2533 57.3399 41.2923 55.6894C41.3299 54.0948 40.0702 52.8294 38.3139 52.816C34.4124 52.7869 30.5104 52.7846 26.6091 52.8182C24.9196 52.8317 23.6614 54.1217 23.6925 55.6826C23.7245 57.2817 24.9695 58.4463 26.6812 58.453C28.6189 58.4619 30.5565 58.4552 32.4942 58.4575ZM32.4637 49.5328C35.0323 49.5328 37.6011 49.5261 40.1696 49.5328C43.2949 49.5418 45.3269 51.5731 45.3405 54.6972C45.3466 56.1126 45.3719 57.5303 45.3219 58.9434C45.3101 59.2771 45.117 59.7116 44.8604 59.9154C37.6795 65.6151 27.2357 65.6106 20.1213 59.9154C19.9168 59.7519 19.6707 59.4764 19.6678 59.2503C19.645 57.4698 19.5415 55.6737 19.7225 53.9089C20.0019 51.1834 21.9893 49.5463 24.7579 49.5351C27.3264 49.5261 29.8952 49.5328 32.4637 49.5328Z" fill="#034DA1"/>
<path id="path462" d="M37.8738 47.8912C37.8738 46.4019 37.8738 45.0067 37.8738 43.5241C38.9613 43.4748 40.0251 43.3315 41.0766 43.392C45.6795 43.6652 49.0523 41.7571 51.2986 37.7729C51.3107 37.7505 51.3366 37.7371 51.3561 37.7192C53.5677 42.5902 53.0179 51.7948 46.9908 57.9424C46.9908 57.5661 46.9975 57.3332 46.9897 57.0981C46.9467 55.7924 47.0327 54.4643 46.8284 53.1833C46.3539 50.2069 43.8735 48.0637 40.8596 47.9002C39.8956 47.8487 38.9266 47.8912 37.8738 47.8912Z" fill="#034DA1"/>
<path id="path464" d="M18.0233 57.8618C13.351 54.4241 10.8406 42.8254 13.4954 37.9007C14.5236 39.0115 15.4973 40.2768 16.6852 41.2936C18.4511 42.8053 20.617 43.4189 22.934 43.4548C24.2945 43.4749 25.6557 43.4592 27.1121 43.4592C27.1121 44.9284 27.1121 46.346 27.1121 47.8757C26.3639 47.8757 25.6631 47.9025 24.9655 47.8689C21.0931 47.6897 18.0292 50.59 18.0236 54.4577C18.022 55.5708 18.0233 56.6838 18.0233 57.8618Z" fill="#034DA1"/>
<path id="path466" d="M32.5083 54.482C30.6205 54.482 28.733 54.4797 26.8453 54.4842C25.9058 54.4864 25.3858 54.903 25.375 55.6353C25.365 56.3363 25.9457 56.8335 26.8251 56.8357C30.6006 56.8402 34.376 56.8402 38.1513 56.8357C39.0451 56.8335 39.6141 56.3632 39.6173 55.6555C39.6206 54.9142 39.1082 54.4864 38.1714 54.4842C36.2837 54.4752 34.396 54.482 32.5083 54.482ZM32.4941 58.4549C30.5565 58.4549 28.6188 58.4617 26.6812 58.4527C24.9695 58.446 23.7245 57.2814 23.6925 55.6824C23.6613 54.1214 24.9195 52.8314 26.609 52.818C30.5103 52.7844 34.4123 52.7866 38.3139 52.8157C40.0701 52.8292 41.3299 54.0945 41.2922 55.6891C41.2533 57.3396 40.0276 58.4505 38.2287 58.4549C36.3173 58.4594 34.4058 58.4572 32.4941 58.4549Z" fill="white"/>
<path id="path468" d="M38.4508 30.259C38.4562 30.8167 38.9339 31.3206 39.4776 31.3407C40.0286 31.3609 40.5737 30.8122 40.5723 30.2389C40.5712 29.6499 40.0478 29.1527 39.4573 29.1795C38.8893 29.2042 38.4454 29.679 38.4508 30.259ZM39.4716 32.9666C37.965 32.9487 36.7187 31.6767 36.7593 30.1963C36.8009 28.6779 38.0425 27.5111 39.582 27.5424C41.0733 27.5715 42.2571 28.7832 42.2455 30.268C42.2336 31.7752 40.9929 32.9823 39.4716 32.9666Z" fill="white"/>
<path id="path470" d="M24.4177 30.2657C24.4298 30.8368 24.9947 31.4078 25.5391 31.3295C26.1415 31.2399 26.5308 30.886 26.5361 30.2321C26.5411 29.6184 26.034 29.1437 25.4325 29.1773C24.8748 29.2086 24.4059 29.7125 24.4177 30.2657ZM25.4809 32.9643C23.9656 32.9599 22.7349 31.7259 22.7482 30.2231C22.7616 28.7025 23.9842 27.5267 25.5364 27.5424C27.0192 27.5581 28.2203 28.7585 28.2344 30.241C28.2487 31.7326 26.9979 32.9688 25.4809 32.9643Z" fill="white"/>
<path id="path472" d="M42.6034 35.4907C42.4361 35.4907 42.2717 35.54 42.134 35.6363C40.6498 36.662 38.9556 37.3182 37.138 37.728C32.2358 38.8366 27.5034 38.4357 23.1376 35.7707C23.0619 35.7236 22.9869 35.6766 22.9123 35.6273C22.7764 35.5377 22.6172 35.4907 22.4546 35.4907H22.3889C21.5574 35.4907 21.2387 36.5679 21.9314 37.027C22.5936 37.4682 23.3002 37.8489 24.0415 38.1826C28.122 40.0124 32.3807 40.3505 36.727 39.5219C39.0306 39.083 41.1949 38.317 43.0746 37.0181C43.7519 36.5522 43.4267 35.4907 42.6034 35.4907Z" fill="white"/>
<path id="path474" d="M32.4998 9.08164L33.2517 11.3951H35.6843L33.7161 12.8262L34.468 15.1396L32.4998 13.7086L30.5317 15.1396L31.2835 12.8262L29.3152 11.3951H31.748L32.4998 9.08164Z" fill="white"/>
<path id="path476" d="M23.692 9.08164L24.4438 11.3951H26.8766L24.9083 12.8262L25.6601 15.1396L23.692 13.7086L21.7239 15.1396L22.4757 12.8262L20.5073 11.3951H22.9402L23.692 9.08164Z" fill="white"/>
<path id="path478" d="M41.293 9.08164L42.0446 11.3951H44.4775L42.5093 12.8262L43.2612 15.1396L41.293 13.7086L39.3247 15.1396L40.0765 12.8262L38.1084 11.3951H40.5412L41.293 9.08164Z" fill="white"/>
</g>
</svg>
